# xmcd CD database file
#
# Track frame offsets:
#	150
#	19225
#	38195
#	55012
#
# Disc length: 973 seconds
#
# Revision: 1
# Processed by: cddbd v1.4PL0 Copyright (c) Steve Scherf et al.
# Submitted via: CDex 1.50Beta5
#
DISCID=2a03cb04
DTITLE=Joe Cocker - what becomes of the broken-hearted  (maxi-single)
DYEAR=1998
DGENRE=Blues
TTITLE0=What Becomes Of The Broken-Hearted
TTITLE1=Togehter (Where Do We Go From Here)
TTITLE2=Into The Mystic (live)
TTITLE3=Don´t Let Me Be Misunderstood (live)
EXTD=YEAR: 1998
EXTT0=
EXTT1=
EXTT2=
EXTT3=
PLAYORDER=
